<svg width="111" height="90" viewBox="0 0 111 90" fill="none" xmlns="http://www.w3.org/2000/svg">
<path d="M102.25 47.6471C99.9583 47.6471 98.0095 46.8741 96.4035 45.3282C94.7975 43.7824 93.9963 41.9082 94 39.7059V7.94119C94 5.73531 94.803 3.85942 96.409 2.31354C98.015 0.767659 99.962 -0.00351735 102.25 1.20595e-05C104.542 1.20595e-05 106.49 0.772953 108.096 2.31884C109.702 3.86472 110.504 5.73884 110.5 7.94119V39.7059C110.5 41.9118 109.697 43.7877 108.091 45.3335C106.485 46.8794 104.538 47.6506 102.25 47.6471ZM44.5 47.6471C38.45 47.6471 33.2708 45.5735 28.9625 41.4265C24.6542 37.2794 22.5 32.2941 22.5 26.4706C22.5 20.6471 24.6542 15.6618 28.9625 11.5147C33.2708 7.36766 38.45 5.29413 44.5 5.29413C50.55 5.29413 55.7292 7.36766 60.0375 11.5147C64.3458 15.6618 66.5 20.6471 66.5 26.4706C66.5 32.2941 64.3458 37.2794 60.0375 41.4265C55.7292 45.5735 50.55 47.6471 44.5 47.6471ZM0.5 90V75.1765C0.5 72.1765 1.27917 69.4182 2.8375 66.9018C4.39583 64.3853 6.55 62.4671 9.3 61.1471C14.8 58.5 20.5053 56.4706 26.416 55.0588C32.3267 53.6471 38.3547 52.9412 44.5 52.9412C50.6417 52.9412 56.6697 53.6471 62.584 55.0588C68.4983 56.4706 74.2037 58.5 79.7 61.1471C82.45 62.4706 84.6042 64.3906 86.1625 66.9071C87.7208 69.4235 88.5 72.18 88.5 75.1765V90H0.5ZM11.5 79.4118H77.5V75.1765C77.5 74.2059 77.2708 73.3235 76.8125 72.5294C76.3542 71.7353 75.6667 71.1177 74.75 70.6765C70.075 68.3824 65.1928 66.6177 60.1035 65.3824C55.0142 64.1471 49.813 63.5294 44.5 63.5294C39.1833 63.5294 33.9803 64.1471 28.891 65.3824C23.8017 66.6177 18.9213 68.3824 14.25 70.6765C13.3333 71.1177 12.6458 71.7353 12.1875 72.5294C11.7292 73.3235 11.5 74.2059 11.5 75.1765V79.4118ZM44.5 37.0588C47.525 37.0588 50.1155 36.0212 52.2715 33.9459C54.4275 31.8706 55.5037 29.3788 55.5 26.4706C55.5 23.5588 54.422 21.0653 52.266 18.99C50.11 16.9147 47.5213 15.8788 44.5 15.8824C41.475 15.8824 38.8845 16.92 36.7285 18.9953C34.5725 21.0706 33.4963 23.5624 33.5 26.4706C33.5 29.3824 34.578 31.8759 36.734 33.9512C38.89 36.0265 41.4787 37.0624 44.5 37.0588Z" fill="black"/>
</svg>
