<svg width="99" height="98" viewBox="0 0 99 98" fill="none" xmlns="http://www.w3.org/2000/svg">
<path d="M83.25 71.5C86.2337 71.5 89.0952 72.6853 91.2049 74.7951C93.3147 76.9048 94.5 79.7663 94.5 82.75C94.5 85.7337 93.3147 88.5952 91.2049 90.7049C89.0952 92.8147 86.2337 94 83.25 94C80.2663 94 77.4048 92.8147 75.2951 90.7049C73.1853 88.5952 72 85.7337 72 82.75M83.25 71.5C80.2663 71.5 77.4048 72.6853 75.2951 74.7951C73.1853 76.9048 72 79.7663 72 82.75M83.25 71.5V26.5M72 82.75H27M27 82.75C27 79.7663 25.8147 76.9048 23.705 74.7951C21.5952 72.6853 18.7337 71.5 15.75 71.5M27 82.75C27 85.7337 25.8147 88.5952 23.705 90.7049C21.5952 92.8147 18.7337 94 15.75 94C12.7663 94 9.90483 92.8147 7.79505 90.7049C5.68526 88.5952 4.5 85.7337 4.5 82.75C4.5 79.7663 5.68526 76.9048 7.79505 74.7951C9.90483 72.6853 12.7663 71.5 15.75 71.5M15.75 71.5V26.5M27 15.25C27 12.2663 25.8147 9.40483 23.705 7.29505C21.5952 5.18526 18.7337 4 15.75 4C12.7663 4 9.90483 5.18526 7.79505 7.29505C5.68526 9.40483 4.5 12.2663 4.5 15.25C4.5 18.2337 5.68526 21.0952 7.79505 23.205C9.90483 25.3147 12.7663 26.5 15.75 26.5M27 15.25C27 18.2337 25.8147 21.0952 23.705 23.205C21.5952 25.3147 18.7337 26.5 15.75 26.5M27 15.25H72M72 15.25C72 12.2663 73.1853 9.40483 75.2951 7.29505C77.4048 5.18526 80.2663 4 83.25 4C86.2337 4 89.0952 5.18526 91.2049 7.29505C93.3147 9.40483 94.5 12.2663 94.5 15.25C94.5 18.2337 93.3147 21.0952 91.2049 23.205C89.0952 25.3147 86.2337 26.5 83.25 26.5M72 15.25C72 18.2337 73.1853 21.0952 75.2951 23.205C77.4048 25.3147 80.2663 26.5 83.25 26.5M24.1875 23.6875L41.0625 40.5625M60.75 49C60.75 46.0163 59.5647 43.1548 57.4549 41.0451C55.3452 38.9353 52.4837 37.75 49.5 37.75C46.5163 37.75 43.6548 38.9353 41.5451 41.0451C39.4353 43.1548 38.25 46.0163 38.25 49C38.25 51.9837 39.4353 54.8452 41.5451 56.9549C43.6548 59.0647 46.5163 60.25 49.5 60.25C52.4837 60.25 55.3452 59.0647 57.4549 56.9549C59.5647 54.8452 60.75 51.9837 60.75 49Z" stroke="black" stroke-width="8" stroke-linecap="round" stroke-linejoin="round"/>
</svg>
