<svg width="101" height="80" viewBox="0 0 101 80" fill="none" xmlns="http://www.w3.org/2000/svg">
<path d="M64.25 62.5H71.75V55H75.5C76.9167 55 78.105 54.52 79.065 53.56C80.025 52.6 80.5033 51.4133 80.5 50V30C80.5 28.5833 80.02 27.395 79.06 26.435C78.1 25.475 76.9133 24.9967 75.5 25H60.5C59.0833 25 57.895 25.48 56.935 26.44C55.975 27.4 55.4967 28.5867 55.5 30V50C55.5 51.4167 55.98 52.605 56.94 53.565C57.9 54.525 59.0867 55.0033 60.5 55H64.25V62.5ZM20.5 55H28V45H38V55H45.5V25H38V37.5H28V25H20.5V55ZM63 47.5V32.5H73V47.5H63ZM10.5 80C7.75001 80 5.39501 79.02 3.43501 77.06C1.47501 75.1 0.496675 72.7467 0.500008 70V10C0.500008 7.25001 1.48001 4.89501 3.44001 2.93501C5.40001 0.975008 7.75334 -0.00332484 10.5 8.48897e-06H90.5C93.25 8.48897e-06 95.605 0.980008 97.565 2.94001C99.525 4.90001 100.503 7.25334 100.5 10V70C100.5 72.75 99.52 75.105 97.56 77.065C95.6 79.025 93.2467 80.0033 90.5 80H10.5ZM10.5 70H90.5V10H10.5V70Z" fill="black"/>
</svg>
